<svg id="svg" xmlns="http://www.w3.org/2000/svg" xmlns:xlink="http://www.w3.org/1999/xlink" width="400" height="367.68402154398564" viewBox="0, 0, 400,367.68402154398564"><g id="svgg"><path id="path0" d="M109.695 0.190 C 71.373 2.885,38.187 20.136,21.942 45.805 C 2.902 75.891,-3.866 108.950,1.991 143.268 C 12.635 205.641,65.564 272.521,157.810 340.154 C 166.062 346.205,184.824 359.538,188.959 362.289 C 190.045 363.012,191.249 363.925,191.634 364.319 C 193.705 366.433,196.323 367.530,199.568 367.643 C 203.200 367.771,204.552 367.262,208.912 364.128 C 210.406 363.053,212.450 361.656,213.452 361.024 C 217.481 358.484,234.242 346.569,245.332 338.362 C 375.872 241.764,425.096 147.260,387.957 64.542 C 377.614 41.504,365.357 27.419,346.050 16.383 C 302.736 -8.376,241.638 -4.676,201.235 25.155 C 199.785 26.225,200.136 26.265,198.160 24.805 C 181.542 12.524,160.057 4.114,137.792 1.172 C 130.167 0.165,116.725 -0.305,109.695 0.190 M128.187 23.881 C 147.067 25.564,164.530 31.306,178.745 40.504 L 180.381 41.562 149.775 68.312 C 132.942 83.025,111.604 101.671,102.358 109.748 C 82.710 126.912,83.043 126.565,82.296 130.700 C 80.781 139.084,88.184 146.046,96.523 144.080 C 99.540 143.368,99.875 143.120,111.316 133.130 L 121.095 124.592 121.185 182.718 L 121.275 240.844 121.674 242.011 C 122.824 245.373,125.399 248.003,128.861 249.350 L 130.072 249.820 200.090 249.820 L 270.108 249.820 271.318 249.350 C 274.796 247.996,277.350 245.389,278.506 242.011 L 278.905 240.844 278.951 184.142 C 278.977 152.956,279.062 127.466,279.141 127.499 C 279.220 127.532,283.627 131.355,288.934 135.996 C 301.123 146.656,301.465 146.884,305.646 147.159 C 316.028 147.841,322.120 135.631,315.314 127.780 C 314.740 127.117,297.422 111.922,276.661 93.864 C 255.974 75.871,234.221 56.947,228.321 51.810 L 217.594 42.470 219.345 41.337 C 251.701 20.383,295.350 17.623,329.354 34.383 C 343.821 41.513,352.837 49.799,360.583 63.083 C 406.008 140.980,353.662 233.424,205.117 337.637 C 199.680 341.451,200.396 341.119,199.306 340.334 C 198.848 340.004,198.330 339.682,198.155 339.619 C 197.808 339.495,189.120 333.389,182.944 328.930 C 42.352 227.408,-5.473 137.649,40.264 61.144 C 46.002 51.546,51.824 45.441,60.952 39.453 C 78.736 27.786,104.656 21.782,128.187 23.881 M227.052 82.061 L 255.451 106.553 255.463 166.472 L 255.476 226.391 199.910 226.391 L 144.345 226.391 144.345 165.814 C 144.345 132.496,144.299 105.116,144.243 104.970 C 144.125 104.662,198.110 57.390,198.451 57.502 C 198.562 57.538,211.433 68.590,227.052 82.061 M166.966 151.436 L 166.966 164.632 180.251 164.632 L 193.537 164.632 193.537 151.436 L 193.537 138.241 180.251 138.241 L 166.966 138.241 166.966 151.436 M206.463 151.436 L 206.463 164.632 219.659 164.632 L 232.855 164.632 232.855 151.436 L 232.855 138.241 219.659 138.241 L 206.463 138.241 206.463 151.436 M166.966 190.934 L 166.966 204.129 180.251 204.129 L 193.537 204.129 193.537 190.934 L 193.537 177.738 180.251 177.738 L 166.966 177.738 166.966 190.934 M206.463 190.934 L 206.463 204.129 219.659 204.129 L 232.855 204.129 232.855 190.934 L 232.855 177.738 219.659 177.738 L 206.463 177.738 206.463 190.934 " stroke="none" fill="#000000" fill-rule="evenodd"></path></g></svg>