<?xml version="1.0" encoding="UTF-8"?>
<svg class="css-1j8o68f" viewBox="0 0 337.93 81.546" xmlns="http://www.w3.org/2000/svg">
<g transform="matrix(.69283 0 0 .69283 .0015061 -3.6027)" fill="#ffd451" featurekey="P96FAn-0">
<g xmlns="http://www.w3.org/2000/svg">
<path d="m120.8 19.7c-5.6-8.8-17.7-14.5-30.8-14.5-9.5 0-18.7 3-26 8.4-7.3-5.5-16.4-8.4-26-8.4-13.1 0-25.2 5.7-30.9 14.6-6.6 10.4-8.6 21.7-6 33.5 2.1 9.6 7.3 19.5 15.5 29.6 14.2 17.6 34 31.3 42.4 37.2 0.8 0.6 1.6 1.1 2.2 1.5 0.2 0.3 0.5 0.5 0.8 0.7 0.6 0.4 1.3 0.6 2 0.6 0.8 0 1.5-0.2 2.2-0.7s1.6-1.2 2.8-1.9c8.4-5.9 28.2-19.6 42.4-37.2 8.2-10.1 13.4-20.1 15.5-29.6 2.6-12 0.6-23.3-6.1-33.8zm-39 19.6v0.1 38.3h-35.6v-38.2c0-0.3 0-0.6-0.1-0.8l17.4-15.2 18.3 15.8zm-17.1 74.7c-0.2 0.1-0.4 0.3-0.6 0.4-0.3-0.2-0.5-0.4-0.8-0.5-49.3-34.3-66.1-64.6-49.8-90.2 4.2-6.7 13.9-11 24.5-11 7.2 0 14.1 2 19.8 5.8l-30.2 26.4c-1.6 1.4-1.7 3.7-0.4 5.3 0.8 0.8 1.8 1.2 2.8 1.2 0.9 0 1.7-0.3 2.5-0.9l6.3-5.5v36.5c0 2.1 1.7 3.7 3.7 3.7h43.1c2.1 0 3.7-1.7 3.7-3.7v-35.6l6.3 5.5c0.7 0.6 1.6 0.9 2.5 0.9 1 0 2.1-0.4 2.8-1.3 1.4-1.6 1.2-3.9-0.4-5.3l-30.9-26.9c5.8-4 12.9-6.1 20.3-6.1 10.6 0 20.3 4.4 24.6 11.1 16.3 25.5-0.5 55.9-49.8 90.2z"/>
<rect x="66.1" y="49.5" width="8.4" height="8.4"/>
<rect x="53.5" y="62.1" width="8.4" height="8.4"/>
<rect x="66.1" y="62.1" width="8.4" height="8.4"/>
<rect x="53.5" y="49.5" width="8.4" height="8.4"/>
</g>
</g>
<g transform="matrix(2.2385 0 0 2.2385 106.15 11.811)" fill="#ffd451" featurekey="nameLeftFeature-0">
<path d="m9.8644 8.78-6.1697-3.3103e-4v3.4068h3.322c0.18644 0 0.33898 0.15254 0.33898 0.33915v1.6778c0 0.20339-0.13559 0.3222-0.33898 0.3222h-3.322v3.1356h6.1695c0.18644 0 0.33881 0.15238 0.33881 0.33881v1.6613c0 0.18644-0.15238 0.33881-0.33881 0.33881h-8.2542c-0.18644 0-0.33898-0.15238-0.33898-0.33881v-12.898c0-0.16949 0.13559-0.32203 0.3222-0.32203h8.2712c0.18644 0 0.33881 0.15254 0.33881 0.32203v1.6949c0 0.18644-0.15238 0.32203-0.33881 0.32203zm15.593 10.847c0.10169 0.20339 0.034229 0.37271-0.20305 0.37271h-1.9831c-0.16949 0-0.27119-0.08458-0.33898-0.22017l-0.91525-1.9322h-6.5256l-0.91525 1.9322c-0.067797 0.13559-0.18644 0.22017-0.33898 0.22017h-2c-0.20339 0-0.32203-0.16933-0.22034-0.37271l6.3898-13.102c0.067797-0.11881 0.15238-0.16966 0.23712-0.16966h0.20339c0.10169 0 0.16949 0.050847 0.23729 0.16966zm-8.9315-3.983h4.4576l-2.2203-4.7288zm10.525 2.0001 0.96576-1.1188c0.20339-0.23746 0.45763-0.23746 0.64407-0.10186 0.55932 0.47458 1.5593 1.3729 2.8136 1.3729 1.2203 0 2.2712-0.4578 2.2712-1.5086 0-1.1017-1.1356-1.4237-2.3051-1.8983-2.4237-1-4.1864-2.0339-4.1864-4.2373 0-1.7288 1.2712-3.8136 4.339-3.8136 2.0847 0 3.5934 1.1866 4.0341 1.6273 0.18644 0.18644 0.28814 0.42373 0.11864 0.62712l-0.84746 1.1186c-0.16966 0.22034-0.40678 0.32203-0.67797 0.13559-0.54237-0.42373-1.4237-1.2034-2.6102-1.2034-1.2034 0-1.9492 0.69492-1.9492 1.5085 0 0.89831 0.77966 1.339 2.0508 1.8475 2.2203 0.93254 4.4407 1.9325 4.4407 4.3224 0 1.9831-1.9659 3.7964-4.6439 3.7964-2.4237 0-3.9322-1.5422-4.3559-1.949-0.15254-0.13559-0.30508-0.32203-0.10169-0.52542zm22.406-11.203c0.18661 0 0.30525 0.20339 0.18661 0.38983l-5.0169 7.7119v5.1188c0 0.20339-0.11864 0.33881-0.30525 0.33881h-1.2712c-0.52542 0-0.83051-0.37288-0.83051-0.86441v-4.5932l-5-7.7119c-0.11864-0.18644 0-0.38983 0.18644-0.38983h2.1695c0.18644 0 0.27119 0.15254 0.37288 0.32203l3.4746 5.3559 3.4576-5.3559c0.11864-0.16949 0.20339-0.32203 0.37288-0.32203h2.2034z"/>
</g>
<g transform="matrix(2.2524 0 0 2.2524 217.9 11.53)" fill="#fff" featurekey="nameRightFeature-0">
<path d="m8.7119 12.644c1.2712 0.74576 2.0847 1.9998 2.0847 3.4744 0 2.3051-2.0339 3.8814-3.9661 3.8814h-5.5593c-0.18644 0-0.33898-0.15238-0.33898-0.33881v-12.898c0-0.16949 0.13543-0.32203 0.32203-0.32203h4.9831c2.1356 0 3.7966 2.0508 3.7966 3.6271 0 1.0678-0.52542 1.9661-1.322 2.5763zm-2.8983-0.6781c2.2373 0 2.2542-3.1864 0-3.1864h-2.4576v3.1864h2.4576zm0.4069 5.6949c2.6949 0 2.7288-3.4237-0.016949-3.4237h-2.8475v3.4237h2.8644zm17.084-11.237h-1.7798c-0.18644 0-0.32203 0.11864-0.32203 0.33898v8.2203c0 1.7458-1.1186 2.7966-2.9661 2.7966-1.8305 0-2.8983-1.0508-2.8983-2.7966v-8.2203c0-0.20339-0.13559-0.33898-0.32203-0.33898h-1.7458c-0.20339 0-0.35576 0.13559-0.35576 0.33898v8.3051c0 2.8814 1.9661 5.0507 5.322 5.0507 3.3729 0 5.3898-2.1693 5.3898-5.0507v-8.3051c0-0.22034-0.13559-0.33898-0.32203-0.33898zm4.8645 0.017h-1.6778c-0.18644 0-0.32203 0.15254-0.32203 0.32203v12.898c0 0.18644 0.15254 0.33881 0.33898 0.33881h1.678c0.16933 0 0.32186-0.16933 0.32186-0.33881v-12.898c0-0.16949-0.16949-0.32203-0.33898-0.32203zm11.068 11.22c0.18644 0 0.32203 0.13592 0.32203 0.33915v1.678c0 0.16949-0.13559 0.32186-0.32203 0.32186h-8.0169c-0.16949 0-0.25424-0.13543-0.25424-0.30508v-12.932c0-0.16949 0.13559-0.32203 0.32203-0.32203h1.7627c0.18644 0 0.33898 0.15254 0.33898 0.32203v10.898h5.8475zm7.0845-11.22c4.4068 0 6.9661 3.5424 6.9661 6.7288 0 3.6102-2.5763 6.8303-6.9661 6.8303h-4.4746c-0.18644 0-0.33898-0.15238-0.33898-0.33881v-12.898c0-0.16949 0.13559-0.32203 0.32203-0.32203h4.4915zm0 11.22c2.7966 0 4.4746-2.1866 4.4576-4.5086 0-2.288-1.5932-4.3727-4.4576-4.3727h-2.4068l0.016949 8.8814h2.3898z"/>
</g>
</svg>
